<svg width="72" height="76" viewBox="0 0 72 76" fill="none" xmlns="http://www.w3.org/2000/svg">
<rect width="72" height="76" rx="12" fill="#008938"/>
<path d="M43.2526 12.3242V17.8017H31.6482C22.5757 17.8017 16.457 25.3859 16.457 32.1274C16.457 38.4476 20.8878 44.1357 24.2636 44.1357H37.7669C38.6109 44.1357 38.8219 42.4503 37.7669 41.8183L31.6482 38.4476C27.6394 36.1302 26.7955 27.7033 33.9691 27.7033H43.2526V32.1274L55.068 22.4365L43.2526 12.3242Z" fill="white" stroke="white"/>
<path d="M29.1165 64.3604V58.8829H40.7209C49.7934 58.8829 55.9121 51.2987 55.9121 44.5572C55.9121 38.237 51.4813 32.5488 48.1055 32.5488H34.6022C33.7583 32.5488 33.5473 34.2342 34.6022 34.8662L40.7209 38.237C44.7297 40.5544 45.5736 48.9813 38.4 48.9813H29.1165L29.1165 44.5572L17.3011 54.2481L29.1165 64.3604Z" fill="#F2B700" stroke="#F3B701"/>
</svg>
