<svg width="219" height="47" viewBox="0 0 219 47" fill="none" xmlns="http://www.w3.org/2000/svg">
<path d="M11.8083 45V40.7299H27.5705C31.6236 40.7299 34.1005 38.4782 35.2264 36.2265C36.5774 33.5244 36.5774 32.6237 36.5774 30.372C36.4196 27.9749 35.2264 26.7692 34.3257 25.4181C29.3719 20.014 24.4181 18.6629 21.2656 17.3119C19.9611 16.7528 19.9146 14.6098 21.2656 14.6098H34.7761V6.50354H19.9146C15.8615 6.50354 11.9821 10.1543 11.358 12.8084C10.7338 15.4625 10.5216 17.7622 11.8083 20.014C13.6097 23.1664 19.1722 26.6954 25.3188 29.4713C26.6698 30.372 26.6698 32.6237 25.3188 32.6237H11.8083V27.6699L1 36.6768L11.8083 45Z" fill="#F2B700"/>
<path d="M38.8292 31.2727V6.61892H48.7368V18.7783V29.4713C48.5534 34.616 56.6433 35.2594 56.8431 29.4713V18.7783V6.61892H66.7507V31.2727C66.7507 36.5614 61.7969 41.1803 56.8431 41.2957H48.7368C43.3327 41.1803 38.8292 37.5775 38.8292 31.2727Z" fill="#F2B700"/>
<path fill-rule="evenodd" clip-rule="evenodd" d="M69.9032 41.1803V6.50354H86.1157C91.5198 6.50354 96.2235 8.30493 96.924 14.6098C97.3744 18.6629 95.1352 21.3176 91.9702 22.7161C94.2219 23.6167 97.3744 24.9678 97.8247 29.9216C97.8247 33.5244 97.2211 35 96.0233 36.6768C93.7716 39.8293 90.6191 41.1803 87.9171 41.1803H69.9032ZM79.8108 26.7692V33.074H85.215C88.3674 33.074 88.3674 26.7692 85.215 26.7692H79.8108ZM79.8108 20.4643V14.1594H84.7646C87.4667 14.1594 87.4667 20.4643 84.7646 20.4643H79.8108Z" fill="#F2B700"/>
<path d="M11.8083 45V40.7299H27.5705C31.6236 40.7299 34.1005 38.4782 35.2264 36.2265C36.5774 33.5244 36.5774 32.6237 36.5774 30.372C36.4196 27.9749 35.2264 26.7692 34.3257 25.4181C29.3719 20.014 24.4181 18.6629 21.2656 17.3119C19.9611 16.7528 19.9146 14.6098 21.2656 14.6098H34.7761V6.50354H19.9146C15.8615 6.50354 11.9821 10.1543 11.358 12.8084C10.7338 15.4625 10.5216 17.7622 11.8083 20.014C13.6097 23.1664 19.1722 26.6954 25.3188 29.4713C26.6698 30.372 26.6698 32.6237 25.3188 32.6237H11.8083V27.6699L1 36.6768L11.8083 45Z" stroke="#F2B700"/>
<path d="M38.8292 31.2727V6.61892H48.7368V18.7783V29.4713C48.5534 34.616 56.6433 35.2594 56.8431 29.4713V18.7783V6.61892H66.7507V31.2727C66.7507 36.5614 61.7969 41.1803 56.8431 41.2957H48.7368C43.3327 41.1803 38.8292 37.5775 38.8292 31.2727Z" stroke="#F2B700"/>
<path fill-rule="evenodd" clip-rule="evenodd" d="M69.9032 41.1803V6.50354H86.1157C91.5198 6.50354 96.2235 8.30493 96.924 14.6098C97.3744 18.6629 95.1352 21.3176 91.9702 22.7161C94.2219 23.6167 97.3744 24.9678 97.8247 29.9216C97.8247 33.5244 97.2211 35 96.0233 36.6768C93.7716 39.8293 90.6191 41.1803 87.9171 41.1803H69.9032ZM79.8108 26.7692V33.074H85.215C88.3674 33.074 88.3674 26.7692 85.215 26.7692H79.8108ZM79.8108 20.4643V14.1594H84.7646C87.4667 14.1594 87.4667 20.4643 84.7646 20.4643H79.8108Z" stroke="#F2B700"/>
<path d="M100.527 32.1733V6.50348H110.435V30.3719C110.435 33.074 115.839 33.5243 115.839 30.3719V6.50348H125.746V30.3719C125.746 33.5243 132.051 33.5243 132.051 30.3719V6.50348H141.959V32.1733C141.959 36.6768 136.555 41.6306 129.799 41.6306C125.746 41.6306 124.145 40.4365 121.243 38.4781C117.764 40.5126 115.839 41.6306 111.786 41.6306C104.58 41.6306 100.527 37.1271 100.527 32.1733Z" fill="#008938"/>
<path d="M175.285 22.2656V5.60278H184.742V20.9146C184.742 23.6167 192.398 23.6167 192.398 20.9146V12.8083C192.398 8.75521 196.001 6.05313 200.054 6.05313H207.71V2L218.068 10.5566L207.71 19.1132V15.0601H202.305V22.2656C202.305 26.3188 199.153 30.3719 194.199 30.8222V40.7299H183.841V30.8222C178.437 30.8222 175.285 26.3188 175.285 22.2656Z" fill="#008938"/>
<path fill-rule="evenodd" clip-rule="evenodd" d="M144.661 15.0601V40.7299H154.569V30.8222H162.675V40.7299H172.582V14.6097C172.582 10.1063 166.278 5.60278 162.224 5.60278H154.569C150.515 5.60278 144.661 10.1063 144.661 15.0601ZM154.569 23.1663V16.4111C154.569 15.0601 156.37 13.709 158.622 13.709C160.873 13.709 162.675 15.0601 162.675 16.4111V23.1663H154.569Z" fill="#008938"/>
<path d="M100.527 32.1733V6.50348H110.435V30.3719C110.435 33.074 115.839 33.5243 115.839 30.3719V6.50348H125.746V30.3719C125.746 33.5243 132.051 33.5243 132.051 30.3719V6.50348H141.959V32.1733C141.959 36.6768 136.555 41.6306 129.799 41.6306C125.746 41.6306 124.145 40.4365 121.243 38.4781C117.764 40.5126 115.839 41.6306 111.786 41.6306C104.58 41.6306 100.527 37.1271 100.527 32.1733Z" stroke="#008938"/>
<path d="M175.285 22.2656V5.60278H184.742V20.9146C184.742 23.6167 192.398 23.6167 192.398 20.9146V12.8083C192.398 8.75521 196.001 6.05313 200.054 6.05313H207.71V2L218.068 10.5566L207.71 19.1132V15.0601H202.305V22.2656C202.305 26.3188 199.153 30.3719 194.199 30.8222V40.7299H183.841V30.8222C178.437 30.8222 175.285 26.3188 175.285 22.2656Z" stroke="#008938"/>
<path fill-rule="evenodd" clip-rule="evenodd" d="M144.661 15.0601V40.7299H154.569V30.8222H162.675V40.7299H172.582V14.6097C172.582 10.1063 166.278 5.60278 162.224 5.60278H154.569C150.515 5.60278 144.661 10.1063 144.661 15.0601ZM154.569 23.1663V16.4111C154.569 15.0601 156.37 13.709 158.622 13.709C160.873 13.709 162.675 15.0601 162.675 16.4111V23.1663H154.569Z" stroke="#008938"/>
</svg>
