<svg width="126" height="55" viewBox="0 0 126 55" fill="none" xmlns="http://www.w3.org/2000/svg">
<path d="M5.05648 38.603C7.38527 26.8567 9.8309 21.0723 14.2469 10.7931C15.11 8.78427 24.198 8.9726 22.867 12.1742L18.24 23.2228C28.0643 19.7701 30.9166 6.46154 21.2824 6.46154C14.2469 6.46154 9.17635 11.8603 7.65516 20.0212C7.01159 23.4739 1.00003 20.9629 1 14.9991C2.52118 4.51548 32.1208 -5.71706 36.9379 11.7975C38.2328 16.5058 30.663 25.4828 22.867 27.2405C24.3882 42.3068 30.2193 47.5173 40.0436 42.9346C40.8676 42.5503 41.1211 42.6835 41.755 42.9346C42.3888 43.2485 42.7691 44.0815 42.5789 44.2529C28.508 56.9337 18.0499 51.2838 15.1343 33.5181L12.9159 41.7419C12.4089 43.6251 4.43419 41.7419 5.05648 38.603Z" fill="white"/>
<path d="M119.652 1C112.997 1 111.539 12.237 119.272 12.237C127.004 12.237 126.688 1 119.652 1Z" fill="white"/>
<path fill-rule="evenodd" clip-rule="evenodd" d="M51.4525 16.8824C48.4272 11.4206 43.0226 12.1742 38.8394 16.8824C34.466 20.7745 27.2404 37.9125 35.4167 41.7419C38.9664 43.4043 42.2815 41.255 44.7339 39.2308C47.6013 43.5902 49.9583 43.2995 55.3188 38.603L52.1497 49.2122C51.3257 52.5394 59.1218 55.6782 60.0091 52.9788L63.1783 40.0469C68.2197 44.1116 72.1936 42.7304 80.038 37.8497L77.059 49.2122C77.059 52.351 83.4607 55.741 84.4114 52.9788L87.6439 40.0469C93.5465 42.9613 97.2488 43.3448 106.152 36.7197C106.654 42.2342 111.471 43.4584 114.518 41.0513C119.525 37.0964 121.477 34.4694 124.469 29.626C125.245 28.3705 121.926 27.0522 121.554 27.6799C119.453 31.2194 118.12 32.3642 115.659 33.9576C116.139 27.1799 117.743 23.7785 120.462 18.0151L120.577 17.7705L120.671 17.5712L120.73 17.4474C121.554 15.0619 114.768 13.1786 113.694 15.0619C111.071 19.6634 109.654 22.2822 108.116 27.6799C106.983 32.0974 105.458 33.745 101.905 35.9036C110.516 19.4876 108.687 15.0619 101.905 13.1158C100.088 12.5945 98.8683 13.4263 96.7356 14.8804C96.3386 15.1511 95.91 15.4433 95.44 15.7524C92.7302 13.7295 89.2285 13.8064 88.4679 15.7524L82.9536 29.061C81.6859 32.4509 80.8443 33.8341 77.059 35.9036C85.9377 20.809 83.3973 13.4925 77.8196 13.1158C74.415 13.2074 72.9419 13.835 70.9109 15.7524C69.5799 13.8064 64.5274 12.802 63.8755 15.0619C61.5937 22.9717 57.8408 32.7604 53.7976 33.9576C54.1955 30.5227 55.1192 27.3056 59.3119 16.8824C56.0879 13.5239 54.3629 13.5446 51.4525 16.8824ZM47.9031 18.5146C43.7198 20.3351 38.8394 29.061 40.0436 36.7197C44.5438 33.9576 49.1707 24.7922 47.9031 18.5146ZM74.5237 18.5146C70.3405 20.3351 65.46 29.061 66.6643 36.7197C71.1645 33.9576 75.7914 24.7922 74.5237 18.5146ZM98.7992 18.5146C94.616 20.3351 89.7355 29.061 90.9398 36.7197C95.44 33.9576 100.067 24.7922 98.7992 18.5146Z" fill="white"/>
<path d="M120.73 17.4474C121.554 15.0619 114.768 13.1786 113.694 15.0619C111.071 19.6634 109.654 22.2822 108.116 27.6799C106.983 32.0974 105.458 33.745 101.905 35.9036C110.516 19.4876 108.687 15.0619 101.905 13.1158C100.088 12.5945 98.8683 13.4263 96.7356 14.8804C96.3386 15.1511 95.91 15.4433 95.44 15.7524C92.7302 13.7295 89.2285 13.8064 88.4679 15.7524L82.9536 29.061C81.6859 32.4509 80.8443 33.8341 77.059 35.9036C85.9377 20.809 83.3973 13.4925 77.8196 13.1158C74.415 13.2074 72.9419 13.835 70.9109 15.7524C69.5799 13.8064 64.5274 12.802 63.8755 15.0619C61.5937 22.9717 57.8408 32.7604 53.7976 33.9576C54.1955 30.5227 55.1192 27.3056 59.3119 16.8824C56.0879 13.5239 54.3629 13.5446 51.4525 16.8824C48.4272 11.4206 43.0226 12.1742 38.8394 16.8824C34.466 20.7745 27.2404 37.9125 35.4167 41.7419C38.9664 43.4043 42.2815 41.255 44.7339 39.2308C47.6013 43.5902 49.9583 43.2995 55.3188 38.603L52.1497 49.2122C51.3257 52.5394 59.1218 55.6782 60.0091 52.9788L63.1783 40.0469C68.2197 44.1116 72.1936 42.7304 80.038 37.8497L77.059 49.2122C77.059 52.351 83.4607 55.741 84.4114 52.9788L87.6439 40.0469C93.5465 42.9613 97.2488 43.3448 106.152 36.7197C106.654 42.2342 111.471 43.4584 114.518 41.0513C119.525 37.0964 121.477 34.4694 124.469 29.626C125.245 28.3705 121.926 27.0522 121.554 27.6799C119.453 31.2194 118.12 32.3642 115.659 33.9576C116.139 27.1799 117.743 23.7785 120.462 18.0151M120.73 17.4474L120.671 17.5712M120.73 17.4474C120.71 17.4888 120.691 17.53 120.671 17.5712M120.462 18.0151L120.577 17.7705M120.462 18.0151C120.5 17.934 120.539 17.8525 120.577 17.7705M120.577 17.7705L120.671 17.5712M120.577 17.7705C120.608 17.7044 120.64 17.6379 120.671 17.5712M14.2469 10.7931C9.8309 21.0723 7.38527 26.8567 5.05648 38.603C4.43419 41.7419 12.4089 43.6251 12.9159 41.7419L15.1343 33.5181C18.0499 51.2838 28.508 56.9337 42.5789 44.2529C42.7691 44.0815 42.3888 43.2485 41.755 42.9346C41.1211 42.6835 40.8676 42.5503 40.0436 42.9346C30.2193 47.5173 24.3882 42.3068 22.867 27.2405C30.663 25.4828 38.2328 16.5058 36.9379 11.7975C32.1208 -5.71706 2.52118 4.51548 1 14.9991C1.00003 20.9629 7.01159 23.4739 7.65516 20.0212C9.17635 11.8603 14.2469 6.46154 21.2824 6.46154C30.9166 6.46154 28.0643 19.7701 18.24 23.2228L22.867 12.1742C24.198 8.9726 15.11 8.78427 14.2469 10.7931ZM47.9031 18.5146C43.7198 20.3351 38.8394 29.061 40.0436 36.7197C44.5438 33.9576 49.1707 24.7922 47.9031 18.5146ZM119.652 1C112.997 1 111.539 12.237 119.272 12.237C127.004 12.237 126.688 1 119.652 1ZM98.7992 18.5146C94.616 20.3351 89.7355 29.061 90.9398 36.7197C95.44 33.9576 100.067 24.7922 98.7992 18.5146ZM74.5237 18.5146C70.3405 20.3351 65.46 29.061 66.6643 36.7197C71.1645 33.9576 75.7914 24.7922 74.5237 18.5146Z" stroke="white"/>
</svg>
