<svg width="21" height="22" viewBox="0 0 21 22" fill="none" xmlns="http://www.w3.org/2000/svg">
<path d="M21 1H15.8182M15.8182 1C18.5041 1 18.2927 4.67476 16.0297 4.67476C15.2683 4.67476 14.346 4.23534 14.1085 3.6188M15.8182 1C14.3155 1 13.6863 2.5226 14.1085 3.6188M14.1085 3.6188L13.534 7.90602H9.32513M9.32513 7.90602C9.63608 6.21817 8.96117 4.82145 7.8658 3.94668M9.32513 7.90602H5.21184M5.68734 11.3485C3.28487 11.3485 1.79171 10.2631 1.24078 8.72967M5.68734 11.3485L5.21184 7.90602M5.68734 11.3485H18.1658M5.68734 11.3485L6.44875 19.3316C6.5545 20.1341 7.21015 21 8.22534 21H15.5009C16.3258 21 17.0872 20.6199 17.3833 19.3316L18.1658 11.3485M5.09516 7.06125L7.8658 3.94668M5.09516 7.06125L2.64176 3.73358M5.09516 7.06125L1.24078 8.72967M5.09516 7.06125L5.21184 7.90602M7.8658 3.94668C6.42321 2.79461 4.25135 2.54784 2.64176 3.73358M2.64176 3.73358C2.2315 4.03581 1.85777 4.4311 1.54195 4.92819C0.937314 6.26898 0.841114 7.61724 1.24078 8.72967M18.1658 11.3485L18.5888 7.90602H16.7911" stroke="#00572D" stroke-width="2"/>
</svg>
