<svg width="24" height="23" viewBox="0 0 24 23" fill="none" xmlns="http://www.w3.org/2000/svg">
<path d="M9.60862 12.4844L2.23805 20.0089C1.41212 20.9886 2.91938 22.6144 3.95165 21.7598L11.4667 14.2959M18.3625 9.12854C16.9379 11.1504 15.8437 9.7747 14.894 10.9003L12.0861 13.6822M18.3625 9.12854L21.6658 5.66849M18.3625 9.12854L16.5766 7.34641M18.1766 2.04169L14.7907 5.56427M14.7907 5.56427L16.5766 7.34641M14.7907 5.56427C12.6849 7.46105 14.2952 7.69033 13.0771 8.92011L12.0448 10.129M16.5766 7.34641L19.9109 3.89678M12.0448 10.129L3.82779 2C3.1462 3.95489 2.86824 5.07052 4.61233 7.48189L11.4667 14.2959M12.0448 10.129L21.6864 19.8839C22.6981 20.9886 21.0464 22.7395 19.787 21.5722L12.0861 13.6822M11.4667 14.2959L12.0861 13.6822" stroke="#00572D" stroke-width="2"/>
</svg>
