<svg width="21" height="25" viewBox="0 0 21 25" fill="none" xmlns="http://www.w3.org/2000/svg">
<path d="M10.3772 8.36209C5.75558 5.24143 1.15629 7.5065 1 12.1355C1.00002 14.8339 2.18331 18.2124 4.12573 21.1521C5.65339 23.4641 8.76968 23.5214 10.4888 22.0516C11.9624 23.3898 14.7979 23.4995 16.9636 21.1521C18.973 18.6731 20 14.3732 20 12.1355C20 8.36209 16.3831 4.9836 10.3772 8.36209ZM10.3772 8.36209C7.36688 6.32943 7.0282 3.51374 8.0329 2C10.1539 2.68009 11.5894 4.03794 10.3772 8.36209ZM10.3772 8.36209C11.4935 5.44431 12.6512 4.63153 15.0658 3.29436" stroke="#00572D" stroke-width="2"/>
</svg>
