<svg width="101" height="56" viewBox="0 0 101 56" fill="none" xmlns="http://www.w3.org/2000/svg">
<path d="M1 31.1584L5.12866 10.4136H12.6832L8.46673 31.1584H1Z" fill="white"/>
<path d="M5.83141 7.10142L7.06122 1.08716H14.6158L13.386 7.10142H5.83141Z" fill="white"/>
<path d="M11.4534 37.1727L16.0213 14.5103H13.386L14.0887 10.4136H16.8997C20.0523 1.49794 24.0979 0.0924175 34.0293 1.87163L32.8873 6.14262C26.8679 4.62339 24.8412 5.32506 24.5421 10.4136H29.9006L29.0222 14.5103H23.488L18.9201 37.1727H11.4534Z" fill="white"/>
<path d="M34.0293 31.6814C23.488 30.374 24.5421 16.6563 34.0293 11.8954C41.6717 8.06021 47.8208 10.2393 50.0169 14.5103C52.213 18.7813 47.2937 32.2044 34.0293 31.6814Z" fill="white"/>
<path d="M50.6318 21.4833C53.3228 13.8241 58.5377 9.9778 66.268 9.9778C73.9982 9.9778 78.039 19.1299 68.5519 28.2821C61.1429 35.4294 47.2937 30.9841 50.6318 21.4833Z" fill="white"/>
<path d="M74.2618 21.7448C76.7204 14.5103 82.4312 9.01901 90.425 10.4136L92.4454 1H100L93.8509 31.2456H86.3842L87.2626 27.6719H86.8234C84.8549 29.9578 83.4635 30.7987 80.4987 31.5943C75.4037 32.9615 71.7143 29.2409 74.2618 21.7448Z" fill="white"/>
<path d="M24.2786 37.2599H23.7516C28.583 54.8668 47.118 59.3121 63.1934 47.1093L65.3017 53.4722L68.5519 37.1727H53.6185L58.6256 41.0079C48.0843 49.9857 32.0089 51.4674 24.2786 37.2599Z" fill="white"/>
<path d="M1 31.1584L5.12866 10.4136H12.6832L8.46673 31.1584H1Z" stroke="white"/>
<path d="M5.83141 7.10142L7.06122 1.08716H14.6158L13.386 7.10142H5.83141Z" stroke="white"/>
<path d="M11.4534 37.1727L16.0213 14.5103H13.386L14.0887 10.4136H16.8997C20.0523 1.49794 24.0979 0.0924175 34.0293 1.87163L32.8873 6.14262C26.8679 4.62339 24.8412 5.32506 24.5421 10.4136H29.9006L29.0222 14.5103H23.488L18.9201 37.1727H11.4534Z" stroke="white"/>
<path d="M34.0293 31.6814C23.488 30.374 24.5421 16.6563 34.0293 11.8954C41.6717 8.06021 47.8208 10.2393 50.0169 14.5103C52.213 18.7813 47.2937 32.2044 34.0293 31.6814Z" stroke="white"/>
<path d="M50.6318 21.4833C53.3228 13.8241 58.5377 9.9778 66.268 9.9778C73.9982 9.9778 78.039 19.1299 68.5519 28.2821C61.1429 35.4294 47.2937 30.9841 50.6318 21.4833Z" stroke="white"/>
<path d="M74.2618 21.7448C76.7204 14.5103 82.4312 9.01901 90.425 10.4136L92.4454 1H100L93.8509 31.2456H86.3842L87.2626 27.6719H86.8234C84.8549 29.9578 83.4635 30.7987 80.4987 31.5943C75.4037 32.9615 71.7143 29.2409 74.2618 21.7448Z" stroke="white"/>
<path d="M24.2786 37.2599H23.7516C28.583 54.8668 47.118 59.3121 63.1934 47.1093L65.3017 53.4722L68.5519 37.1727H53.6185L58.6256 41.0079C48.0843 49.9857 32.0089 51.4674 24.2786 37.2599Z" stroke="white"/>
</svg>
