<svg width="22" height="22" viewBox="0 0 22 22" fill="none" xmlns="http://www.w3.org/2000/svg">
<path d="M14.1569 21.991C11.9709 21.991 9.79376 21.991 7.60775 21.991C7.47391 21.982 7.34007 21.964 7.20624 21.955C6.33183 21.9369 5.46635 21.9009 4.60979 21.6847C2.81637 21.2432 1.48691 20.2162 0.692811 18.5135C0.202073 17.4685 0.0503905 16.3423 0.041468 15.1982C0.0147005 12.8198 -0.012067 10.4324 0.00577803 8.05405C0.0147005 7.05405 0.077158 6.04504 0.219918 5.06306C0.442981 3.53153 1.17463 2.25225 2.42378 1.30631C3.49448 0.504504 4.72578 0.18018 6.03739 0.0900901C6.55489 0.054054 7.08132 0.027027 7.59883 0C9.76699 0 11.9352 0 14.1033 0C14.6119 0.027027 15.1205 0.054054 15.6291 0.0900901C16.5213 0.144144 17.3868 0.297297 18.2077 0.666667C20.2063 1.57658 21.2681 3.1982 21.5893 5.34234C21.6428 5.72072 21.6785 6.10811 21.7231 6.48649C21.7231 9.43243 21.7231 12.3874 21.7231 15.3333C21.7142 15.4144 21.6964 15.4865 21.6875 15.5676C21.6428 16 21.6161 16.4414 21.5447 16.8649C21.3127 18.2432 20.7327 19.4414 19.6799 20.3784C18.5467 21.3964 17.1727 21.8018 15.6915 21.9009C15.183 21.9369 14.6654 21.964 14.1569 21.991ZM10.8823 20.045C10.8823 20.036 10.8823 20.018 10.8823 20.009C11.4533 20.009 12.0333 20.027 12.6043 20.009C13.8357 19.964 15.0759 19.973 16.2983 19.8288C17.9043 19.6306 19.0107 18.7117 19.4925 17.1171C19.7156 16.3874 19.7513 15.6216 19.7602 14.8649C19.787 12.9189 19.8137 10.973 19.7959 9.02703C19.787 7.86486 19.7602 6.7027 19.6264 5.54955C19.4211 3.78378 18.3147 2.58559 16.5927 2.24324C15.8432 2.09009 15.058 2.04504 14.2907 2.03604C12.3902 2 10.4897 2.00901 8.58922 2.01802C7.50068 2.01802 6.40321 2.00901 5.32359 2.1982C3.67293 2.4955 2.53977 3.54955 2.20071 5.20721C2.05795 5.91892 2.01334 6.66667 1.9955 7.39639C1.95981 9.16216 1.94196 10.9279 1.95981 12.7027C1.97765 13.9369 2.01334 15.1802 2.12041 16.4054C2.22748 17.5495 2.74499 18.5045 3.70862 19.1802C4.44918 19.6937 5.29682 19.8919 6.18015 19.9279C7.75051 19.982 9.31195 20.009 10.8823 20.045Z" fill="#AEB7CD"/>
<path d="M10.8914 16.6484C7.81318 16.6574 5.29703 14.1259 5.28811 11.0088C5.27919 7.90068 7.79533 5.36014 10.8825 5.35114C13.9697 5.35114 16.4502 7.85564 16.4769 10.9818C16.4858 14.0899 13.9786 16.6394 10.8914 16.6484ZM7.25106 10.9908C7.25106 13.0178 8.85711 14.6484 10.8647 14.6574C12.8722 14.6664 14.4872 13.0448 14.4961 11.0088C14.5051 8.97276 12.8901 7.33312 10.8736 7.33312C8.86603 7.33312 7.25106 8.96375 7.25106 10.9908Z" fill="#AEB7CD"/>
<path d="M17.9936 5.1172C17.9936 5.84693 17.4225 6.43252 16.7087 6.44153C15.986 6.45053 15.3882 5.85594 15.3882 5.12621C15.3882 4.39648 15.9592 3.8109 16.673 3.8109C17.4047 3.80189 17.9936 4.37846 17.9936 5.1172Z" fill="#AEB7CD"/>
</svg>
