<svg width="19" height="19" viewBox="0 0 19 19" fill="none" xmlns="http://www.w3.org/2000/svg">
<path d="M18.3077 18.2792L18.3167 11.7927C18.3167 8.62149 17.6386 6.18005 13.9714 6.18005C12.2047 6.18005 11.0181 7.16203 10.5362 8.08996H10.4827V6.47735H7.00293V18.2792H10.6255V12.4323C10.6255 10.8918 10.911 9.40527 12.8026 9.40527C14.6584 9.40527 14.6941 11.162 14.6941 12.5314V18.2792H18.3077Z" fill="#AEB7CD"/>
<path d="M4.72765 6.47772H1.09619V18.2795H4.72765V6.47772Z" fill="#AEB7CD"/>
<path d="M2.90747 0.603577C1.74754 0.603577 0.801758 1.55853 0.801758 2.7297C0.801758 3.90087 1.74754 4.87384 2.90747 4.87384C4.06739 4.87384 5.01318 3.90087 5.01318 2.7297C5.01318 1.55853 4.06739 0.603577 2.90747 0.603577Z" fill="#AEB7CD"/>
</svg>
